# xmcd CD database file
#
# Track frame offsets:
#	150
#	28894
#	45316
#	62967
#	79588
#	95066
#	124041
#	143089
#	159866
#	174776
#
# Disc length: 2578 seconds
#
# Revision: 0
# Processed by: cddbd v1.5.2PL0 Copyright (c) Steve Scherf et al.
# Submitted via: CDex 1.51
#
DISCID=770a100a
DTITLE=Souljazz Orchestra - Solidarity
DYEAR=2012
DGENRE=Jazz
TTITLE0=Bibinay
TTITLE1=Kelen Ati Leen
TTITLE2=Cartao Postal
TTITLE3=Ya Basta
TTITLE4=Jericho
TTITLE5=Serve and Protect
TTITLE6=Conquering Lion
TTITLE7=Kingpin
TTITLE8=Tanbou Lou
TTITLE9=Ni Jaay
EXTD=YEAR: 2012
EXTT0=
EXTT1=
EXTT2=
EXTT3=
EXTT4=
EXTT5=
EXTT6=
EXTT7=
EXTT8=
EXTT9=
PLAYORDER=
